<?xml version="1.0" encoding="UTF-8" standalone="no"?>
<!-- Created with Inkscape (http://www.inkscape.org/) -->

<svg
   xmlns:dc="http://purl.org/dc/elements/1.1/"
   xmlns:cc="http://creativecommons.org/ns#"
   xmlns:rdf="http://www.w3.org/1999/02/22-rdf-syntax-ns#"
   xmlns:svg="http://www.w3.org/2000/svg"
   xmlns="http://www.w3.org/2000/svg"
   xmlns:sodipodi="http://sodipodi.sourceforge.net/DTD/sodipodi-0.dtd"
   xmlns:inkscape="http://www.inkscape.org/namespaces/inkscape"
   width="210mm"
   height="297mm"
   viewBox="0 0 210 297"
   version="1.1"
   id="svg1205"
   inkscape:version="0.92.4 (5da689c313, 2019-01-14)"
   sodipodi:docname="APP_DESIGN_WHITE.svg">
  <defs
     id="defs1199" />
  <sodipodi:namedview
     id="base"
     pagecolor="#ffffff"
     bordercolor="#666666"
     borderopacity="1.0"
     inkscape:pageopacity="0.0"
     inkscape:pageshadow="2"
     inkscape:zoom="0.35"
     inkscape:cx="400"
     inkscape:cy="560"
     inkscape:document-units="mm"
     inkscape:current-layer="layer1"
     showgrid="false"
     inkscape:window-width="1920"
     inkscape:window-height="1027"
     inkscape:window-x="-8"
     inkscape:window-y="-8"
     inkscape:window-maximized="1" />
  <metadata
     id="metadata1202">
    <rdf:RDF>
      <cc:Work
         rdf:about="">
        <dc:format>image/svg+xml</dc:format>
        <dc:type
           rdf:resource="http://purl.org/dc/dcmitype/StillImage" />
        <dc:title></dc:title>
      </cc:Work>
    </rdf:RDF>
  </metadata>
  <g
     inkscape:label="Layer 1"
     inkscape:groupmode="layer"
     id="layer1">
    <path
       style="fill:#ffffff;stroke-width:0.35277778"
       d="m 60.078528,240.81833 c -1.74925,-1.08563 -2.07179,-2.13147 -2.07179,-6.71775 0,-4.97685 0.49083,-6.7609 2.48265,-9.02372 2.20049,-2.49989 4.1305,-3.13644 10.13905,-3.34404 l 5.03699,-0.17403 -0.0981,-4.62532 -0.0981,-4.62533 -13.26648,-0.0924 c -12.75887,-0.0889 -13.29093,-0.1194 -13.90533,-0.7983 -0.82056,-0.90671 -0.81872,-2.60561 0.004,-3.51448 0.63402,-0.7006 1.02902,-0.71011 29.47857,-0.71011 h 28.835942 l 0.12535,-4.20756 c 0.10659,-3.57781 0.23421,-4.35335 0.8527,-5.18167 1.25256,-1.67751 2.47713,-2.3586 4.54969,-2.53047 l 1.9549,-0.16212 v -2.24937 -2.24937 H 65.944418 17.790248 v 5.62148 c 0,5.99701 0.20373,7.02985 1.69814,8.60932 1.88464,1.9919 2.52985,2.14761 9.47795,2.28728 5.77977,0.1162 6.47413,0.19583 7.02616,0.80582 0.80354,0.88789 0.7805,2.58977 -0.0474,3.50464 -0.63284,0.69928 -0.95834,0.72488 -7.9081,0.62191 -6.85151,-0.10151 -7.33906,-0.15389 -8.91075,-0.95716 -2.2959,-1.17342 -4.43835,-3.37222 -5.53112,-5.67662 l -0.92011,-1.94028 v -66.675 -66.674999 l 0.91761,-1.956375 c 1.30966,-2.79221 2.85874,-4.387665 5.54335,-5.709294 l 2.34365,-1.153775 h 81.330092 81.33013 l 2.34365,1.153775 c 2.68461,1.321629 4.23369,2.917084 5.54334,5.709294 l 0.91762,1.956375 -0.0441,66.322219 -0.044,66.32223 -0.80395,2.10573 c -1.05376,2.76003 -3.74799,5.50866 -6.28171,6.40856 -1.63614,0.58111 -1.82207,0.75333 -1.82207,1.68768 0,1.87108 -1.29925,3.96844 -2.9548,4.76988 -1.47217,0.71266 -1.9815,0.72676 -26.26074,0.72676 h -24.75947 v 1.5875 1.5875 h 3.63938 c 4.87843,0 7.45732,0.50211 9.44804,1.83955 3.24555,2.18049 4.54453,5.29401 4.54944,10.90454 0.003,3.38028 -0.30752,4.47529 -1.6494,5.81716 l -1.1943,1.1943 -41.88061,-0.009 c -38.092522,-0.009 -41.964422,-0.0614 -42.807402,-0.58458 z m 82.065712,-7.58338 c 0,-3.47374 -0.51659,-4.57011 -2.67091,-5.66863 -1.12794,-0.57514 -3.6129,-0.61685 -36.7869,-0.61736 -32.503422,-3.5e-4 -35.684492,0.0503 -36.818722,0.58858 -1.99054,0.94457 -2.56645,2.25666 -2.56798,5.8506 l -0.001,3.08833 39.422902,-0.0897 39.42293,-0.0897 z m -17.46251,-13.1657 v -1.5875 h -6.71411 c -4.87257,0 -7.02999,-0.13198 -7.86578,-0.4812 -1.65915,-0.69324 -2.9756,-2.42594 -3.25408,-4.28298 l -0.23781,-1.58582 H 93.773624 80.937288 v 4.7625 4.7625 h 21.872212 21.87223 z m 53.97501,-13.22917 v -6.35 h -33.3375 -33.33751 v 6.35 6.35 h 33.33751 33.3375 z m -61.56386,1.75933 c -0.35345,-0.39055 -0.64263,-1.18226 -0.64263,-1.75933 0,-0.57707 0.28918,-1.36878 0.64263,-1.75933 0.60578,-0.66938 1.07458,-0.71011 8.17269,-0.71011 7.05968,0 7.57412,0.0441 8.2356,0.70555 0.39198,0.39198 0.70556,1.17593 0.70556,1.76389 0,0.58796 -0.31358,1.37191 -0.70556,1.76389 -0.66148,0.66148 -1.17592,0.70555 -8.2356,0.70555 -7.09811,0 -7.56691,-0.0407 -8.17269,-0.71011 z m 21.71371,-0.062 c -0.39561,-0.42464 -0.7193,-1.18846 -0.7193,-1.69737 0,-0.50891 0.32369,-1.27273 0.7193,-1.69737 0.64146,-0.68853 1.07831,-0.77207 4.03694,-0.77207 3.02844,0 3.36551,0.0683 3.86681,0.78405 0.75677,1.08044 0.68764,2.60525 -0.15638,3.44928 -0.60058,0.60058 -1.17593,0.70555 -3.86681,0.70555 -2.79776,0 -3.24397,-0.0888 -3.88056,-0.77207 z m 13.06464,-0.15745 c -0.40214,-0.51123 -0.73116,-1.2042 -0.73116,-1.53992 0,-0.33572 0.32902,-1.02869 0.73116,-1.53992 l 0.73116,-0.92952 h 10.17935 10.17934 l 0.73116,0.92952 c 0.40214,0.51123 0.73116,1.2042 0.73116,1.53992 0,0.33572 -0.32902,1.02869 -0.73116,1.53992 l -0.73116,0.92952 h -10.17934 -10.17935 z m 34.90738,-4.73058 c 0.61168,-1.19898 0.69757,-2.0858 0.69757,-7.20223 v -5.83489 h -5.46806 -5.46805 v 2.29306 2.29305 l 1.4993,0.008 c 0.82462,0.004 2.17936,0.3164 3.01053,0.69365 2.19995,0.99848 2.88072,2.68749 2.89075,7.17193 l 0.008,3.46361 1.06632,-0.75929 c 0.58647,-0.4176 1.38022,-1.37459 1.76389,-2.12663 z M 171.2484,192.37615 v -2.82222 h -25.92916 -25.92918 v 2.82222 2.82222 h 25.92918 25.92916 z m -64.30979,-14.72847 c -0.0708,-7.52547 -0.0564,-7.69505 0.7494,-8.82477 1.03126,-1.44584 2.43153,-2.17935 4.66546,-2.44393 l 1.74492,-0.20666 v -2.54756 -2.54755 l -1.79793,-0.21294 c -2.26107,-0.26779 -3.79513,-1.1526 -4.71597,-2.72004 -0.66341,-1.12925 -0.71804,-1.81278 -0.71804,-8.98336 0,-7.12765 0.0576,-7.85863 0.70555,-8.95593 0.38806,-0.65715 1.25871,-1.49059 1.93478,-1.85208 1.15486,-0.61751 2.36356,-0.65726 19.98105,-0.65726 17.69805,0 18.797,0.0366 19.55529,0.65058 1.06074,0.85894 1.07501,2.64473 0.0295,3.69054 l -0.77394,0.77415 -18.16658,0.0975 -18.16657,0.0975 0.0963,6.25252 0.0963,6.25252 33.24932,0.09 33.24931,0.09 v -6.3518 -6.3518 l -7.49653,-0.005 c -7.98833,-0.006 -8.88489,-0.16531 -9.66073,-1.72149 -0.5074,-1.01775 -0.012,-2.70831 0.94339,-3.21965 0.37036,-0.19822 4.31509,-0.34534 9.25934,-0.34534 8.36829,0 8.64827,0.0229 9.81277,0.80078 2.2314,1.49067 2.43226,2.36478 2.43288,10.58763 7e-4,8.09309 -0.1715,8.96977 -2.07538,10.57177 -0.81134,0.68271 -1.68596,1.00173 -3.22296,1.17563 l -2.10945,0.23865 v 2.5547 2.5547 l 2.10945,0.23866 c 1.537,0.17389 2.41162,0.49292 3.22296,1.17562 1.90029,1.59899 2.07592,2.48593 2.07592,10.48358 v 7.24328 h 1.76389 1.76389 V 141.22341 97.126191 H 102.63312 17.790068 v 44.097219 44.09723 h 44.61036 44.610352 z M 27.667848,165.31481 c -1.8157,-0.66763 -2.38681,-3.00736 -1.05833,-4.33584 0.66367,-0.66367 1.17592,-0.70556 8.62931,-0.70556 7.69703,0 7.94434,0.0221 8.64306,0.77208 1.32816,1.42562 0.78726,3.47536 -1.08979,4.12971 -1.13775,0.39662 -14.09986,0.51627 -15.12425,0.13961 z m 21.68359,-0.077 c -1.81806,-0.75812 -2.31342,-3.16069 -0.88941,-4.31377 0.7377,-0.59737 1.60508,-0.65059 10.60304,-0.65059 8.99797,0 9.86534,0.0532 10.60305,0.65059 1.06054,0.85877 1.07499,2.64463 0.0298,3.69054 -0.75381,0.75437 -1.01448,0.77605 -10.20116,0.84835 -5.18517,0.0408 -9.75059,-0.0605 -10.14538,-0.22512 z m 26.81111,-0.008 c -1.81489,-0.73564 -2.31403,-3.15182 -0.88941,-4.30541 0.74728,-0.60512 1.68394,-0.65059 13.40285,-0.65059 H 101.2754 l 0.76706,0.81649 c 1.36335,1.45122 0.86066,3.42201 -1.04204,4.0853 -1.321336,0.46062 -23.714652,0.50949 -24.837872,0.0542 z m -49.55303,-11.65917 c -0.95033,-0.95033 -0.93192,-2.86052 0.036,-3.73769 0.61484,-0.55719 1.41149,-0.69278 4.66162,-0.79345 4.55778,-0.14116 6.29495,0.24883 6.88592,1.54588 0.57093,1.25304 0.51987,1.69322 -0.32027,2.76129 -0.72736,0.92469 -0.75673,0.92952 -5.64445,0.92952 -4.44291,0 -4.98083,-0.0675 -5.61884,-0.70555 z m 16.91362,0.055 c -1.06063,-0.85884 -1.075,-2.64468 -0.0297,-3.69055 0.76218,-0.76259 0.95142,-0.77549 12.6706,-0.86438 12.71398,-0.0964 13.2248,-0.0368 14.06107,1.64054 0.5074,1.01774 0.012,2.7083 -0.9434,3.21964 -0.38508,0.20609 -5.54628,0.34533 -12.8002,0.34533 -11.28695,0 -12.21232,-0.0465 -12.95838,-0.65058 z m 32.18398,-0.1659 c -1.36335,-1.45123 -0.86066,-3.42202 1.04204,-4.0853 1.41518,-0.49334 4.8137,-0.50404 6.20353,-0.0196 0.99939,0.34839 1.86516,1.55401 1.86516,2.5973 0,0.25575 -0.32902,0.88328 -0.73116,1.39451 -0.70059,0.89066 -0.875,0.92952 -4.17184,0.92952 -3.14037,0 -3.50763,-0.0713 -4.20773,-0.81648 z m 13.05278,0 c -0.94646,-1.00747 -0.98308,-2.36604 -0.0934,-3.46597 0.63025,-0.77921 0.95116,-0.84047 4.985056,-0.95162 2.37129,-0.0653 4.85514,-0.0168 5.51966,0.10787 2.452426,0.46008 3.405676,2.8164 1.763496,4.35915 -0.76344,0.71722 -1.160486,0.76705 -6.112106,0.76705 -5.079326,0 -5.326956,-0.0333 -6.062676,-0.81648 z m 28.773192,-2.09393 c -1.4749,-1.12 -1.36459,-3.2833 0.22038,-4.3218 0.74413,-0.48758 1.89622,-0.55472 7.92034,-0.46154 6.34733,0.0982 7.12341,0.17597 7.79123,0.78107 1.01452,0.91923 0.97855,2.68662 -0.0748,3.67619 -0.78348,0.73603 -1.10881,0.76705 -8.04646,0.76705 -5.23909,0 -7.38989,-0.12143 -7.81069,-0.44097 z m 21.42011,-0.42494 c -1.0387,-1.0387 -1.10851,-2.2841 -0.19152,-3.41654 0.61816,-0.7634 0.93857,-0.83283 3.84352,-0.83283 3.69525,0 4.65431,0.51728 4.65431,2.51038 0,2.00538 -1.03389,2.6049 -4.49228,2.6049 -2.65973,0 -3.03282,-0.0847 -3.81403,-0.86591 z m 13.05278,0 c -1.35854,-1.35854 -1.11337,-3.03891 0.57043,-3.90964 1.27619,-0.65994 18.80497,-0.76188 20.21905,-0.11758 1.78991,0.81554 1.94897,3.61334 0.25691,4.5189 -0.44446,0.23786 -4.24856,0.37423 -10.43987,0.37423 h -9.74061 z M 27.667848,143.08981 c -1.8157,-0.66763 -2.38681,-3.00736 -1.05833,-4.33584 0.67246,-0.67246 1.17592,-0.70556 10.73411,-0.70556 h 10.02857 l 0.73116,0.92952 c 0.40214,0.51124 0.73116,1.13877 0.73116,1.39452 0,1.04329 -0.86577,2.24891 -1.86516,2.59729 -1.09247,0.38084 -18.30117,0.48789 -19.30151,0.12007 z m 27.51667,0.007 c -1.82112,-0.69337 -2.38674,-3.01433 -1.05834,-4.34274 0.68568,-0.68568 1.17593,-0.70556 17.40101,-0.70556 h 16.69545 l 0.76705,0.81649 c 0.94664,1.00766 0.98306,2.36626 0.0929,3.46596 l -0.67413,0.83283 -16.3474,0.0673 c -8.99106,0.037 -16.58551,-0.0234 -16.87655,-0.13424 z m 17.63889,-12.69908 c -1.82184,-0.6968 -2.38674,-3.01526 -1.05834,-4.34366 0.67402,-0.67401 1.17593,-0.70555 11.2274,-0.70555 h 10.521836 l 0.76705,0.81648 c 0.94658,1.00759 0.98307,2.36618 0.0931,3.46596 l -0.67396,0.83283 -10.173956,0.0682 c -5.59568,0.0375 -10.41208,-0.0229 -10.70313,-0.13424 z m 27.680792,-0.0793 c -1.820176,-0.77323 -2.313006,-3.16662 -0.889406,-4.31938 0.693516,-0.56159 1.465336,-0.6506 5.641746,-0.6506 4.6013,0 4.87588,0.04 5.60536,0.81649 0.94645,1.00745 0.98309,2.36601 0.0935,3.46596 -0.63758,0.78831 -0.91573,0.8371 -5.20348,0.91264 -2.49143,0.0439 -4.8529,-0.0574 -5.24769,-0.22512 z m 16.01097,-0.0765 c -1.85113,-0.67834 -2.07054,-3.5932 -0.34019,-4.51926 0.45412,-0.24304 4.96505,-0.37424 12.86767,-0.37424 h 12.16843 l 0.73116,0.92952 c 1.18922,1.51185 0.91485,3.00829 -0.70518,3.84603 -0.81905,0.42355 -3.04184,0.51113 -12.39268,0.48827 -6.41337,-0.0157 -11.80317,-0.17757 -12.32921,-0.37033 z m -82.144542,-2.67134 c -0.84101,-0.29327 -9.54778,-9.01375 -9.90905,-9.92465 -0.54516,-1.37456 0.49367,-2.87697 5.13746,-7.43009 3.35886,-3.29328 4.56957,-4.27019 5.29215,-4.27019 2.07964,0 3.31027,1.61096 2.62755,3.43958 -0.19921,0.53358 -1.81942,2.43865 -3.60045,4.23351 l -3.23824,3.26337 3.49158,3.50474 c 2.9255,2.93651 3.49159,3.6832 3.49159,4.60553 0,1.65146 -1.83337,3.08705 -3.29259,2.5782 z m 7.05555,-0.007 c -1.08505,-0.39174 -1.76389,-1.29937 -1.76397,-2.35852 -1.1e-4,-1.38671 6.22192,-17.40497 7.17288,-18.46615 0.81778,-0.91257 2.21324,-1.02823 3.29173,-0.27282 1.53192,1.07299 1.37558,1.85403 -2.20989,11.04068 -1.87251,4.79771 -3.66239,8.98433 -3.97752,9.3036 -0.68067,0.68964 -1.77821,1.01857 -2.51323,0.75321 z m 12.52361,-0.15356 c -1.0409,-0.56934 -1.5875,-1.38089 -1.5875,-2.35704 0,-0.6234 1.00604,-1.888 3.59478,-4.51869 l 3.59476,-3.65301 -3.59476,-3.65303 c -3.89026,-3.95329 -4.20404,-4.64949 -2.86361,-6.35356 0.50871,-0.64673 1.06358,-0.92952 1.82381,-0.92952 0.93119,0 1.81367,0.71442 5.97162,4.83442 6.39374,6.33539 6.3663,5.76107 0.55743,11.6679 -2.37684,2.41692 -4.83237,4.61389 -5.45672,4.88215 -1.3308,0.57179 -1.1541,0.56483 -2.03981,0.0804 z m 18.87362,-8.64969 c -1.82566,-0.71495 -2.3867,-3.02014 -1.05834,-4.3485 0.64611,-0.64611 1.17593,-0.70555 6.28851,-0.70555 5.37966,0 5.61088,0.0297 6.35,0.81648 0.94645,1.00746 0.98309,2.36602 0.0935,3.46597 -0.64769,0.80081 -0.87485,0.83563 -5.90903,0.90583 -2.87949,0.0401 -5.47357,-0.0203 -5.76461,-0.13423 z m 19.214136,-0.0981 c -1.814886,-0.73565 -2.314026,-3.15183 -0.889406,-4.30541 0.766166,-0.62041 2.142036,-0.65058 29.666512,-0.65058 h 28.8631 l 0.73116,0.92952 c 1.18922,1.51184 0.91484,3.00828 -0.70518,3.84603 -0.85244,0.44081 -5.07981,0.51285 -28.97324,0.49375 -15.38633,-0.0123 -28.298156,-0.15329 -28.692946,-0.31331 z M 178.65674,177.91 v -6.3518 l -33.24931,0.09 -33.24932,0.09 -0.0963,6.26181 -0.0963,6.2618 h 33.34565 33.34564 z m -60.67084,2.38187 c -1.80371,-0.93524 -2.00936,-3.61388 -0.34582,-4.50418 0.36039,-0.19287 3.82119,-0.34533 7.8389,-0.34533 7.0633,0 7.20755,0.0148 7.9607,0.81648 0.98845,1.05216 1.00028,2.7434 0.0254,3.62676 -0.6681,0.60536 -1.4294,0.68136 -7.67291,0.76599 -5.1164,0.0694 -7.16033,-0.0248 -7.80622,-0.35972 z m 21.62376,0.10462 c -1.58708,-0.6759 -1.95464,-2.54555 -0.79121,-4.02461 0.69023,-0.87749 0.90374,-0.92952 3.81404,-0.92952 3.60419,0 4.62702,0.57583 4.62702,2.6049 0,1.8744 -0.99784,2.49321 -4.18109,2.59293 -1.48394,0.0465 -3.04488,-0.0632 -3.46876,-0.2437 z m 13.11791,-0.0698 c -1.78087,-0.97406 -2.08306,-2.65692 -0.72159,-4.01839 l 0.86591,-0.86591 h 9.74061 c 6.19131,0 9.99541,0.13636 10.43987,0.37423 1.69206,0.90556 1.533,3.70336 -0.25691,4.51889 -1.18401,0.53948 -19.07983,0.53161 -20.06789,-0.009 z m 18.52083,-16.70236 v -2.64583 h -25.92916 -25.92918 v 2.64583 2.64584 h 25.92918 25.92916 z m 16.22778,-82.214739 c 0,-11.292405 -0.0168,-11.403813 -1.99698,-13.277399 -0.5509,-0.521233 -1.44853,-1.116545 -1.99474,-1.322917 -1.3974,-0.527974 -159.952492,-0.527974 -161.349892,0 -1.232,0.465479 -2.80874,1.931117 -3.58131,3.328946 -0.4963,0.897976 -0.60287,2.544976 -0.70334,10.869974 -0.0651,5.396402 -0.0308,10.039839 0.0762,10.318749 0.16847,0.439013 11.5656,0.50711 84.872322,0.50711 h 84.67775 z M 30.313678,86.565764 c -5.75482,-1.401004 -7.90856,-8.087113 -4.0259,-12.498054 4.46486,-5.072343 12.75103,-2.446858 13.3035,4.215232 0.32115,3.872669 -2.26399,7.441555 -5.96533,8.235349 -1.93207,0.414355 -1.81229,0.412639 -3.31227,0.04747 z m 3.12743,-5.692956 c 1.1465,-0.901835 1.23798,-2.488158 0.20316,-3.522973 -1.64892,-1.648926 -4.69099,0.167469 -3.96167,2.365491 0.31044,0.935619 1.52048,1.871345 2.43559,1.883442 0.21637,0.0029 0.81168,-0.323821 1.32292,-0.72596 z m 16.62813,5.692956 c -5.78546,-1.408462 -7.92924,-8.063632 -4.0259,-12.498054 4.45635,-5.062686 12.58038,-2.525666 13.26871,4.143633 0.40162,3.89134 -2.17593,7.501727 -5.93054,8.306948 -1.93208,0.414355 -1.8123,0.412639 -3.31227,0.04747 z m 3.12742,-5.692956 c 1.1465,-0.901835 1.23798,-2.488158 0.20317,-3.522973 -1.64893,-1.648926 -4.69099,0.167469 -3.96168,2.365491 0.31044,0.935619 1.52049,1.871345 2.4356,1.883442 0.21637,0.0029 0.81168,-0.323821 1.32291,-0.72596 z m 16.62813,5.692956 c -5.803,-1.412734 -7.97322,-8.256992 -3.98881,-12.579571 4.55876,-4.945672 12.54843,-2.394396 13.23162,4.22515 0.40163,3.89134 -2.17592,7.501727 -5.93054,8.306948 -1.93207,0.414355 -1.81229,0.412639 -3.31227,0.04747 z m 3.12743,-5.692956 c 1.1465,-0.901835 1.23798,-2.488158 0.20316,-3.522973 -1.64892,-1.648926 -4.69098,0.167469 -3.96167,2.365491 0.31044,0.935619 1.52048,1.871345 2.43559,1.883442 0.21637,0.0029 0.81168,-0.323821 1.32292,-0.72596 z"
       id="path1218"
       inkscape:connector-curvature="0" />
  </g>
</svg>
