<?xml version="1.0" encoding="UTF-8" standalone="no"?>
<!-- Created with Inkscape (http://www.inkscape.org/) -->

<svg
   xmlns:dc="http://purl.org/dc/elements/1.1/"
   xmlns:cc="http://creativecommons.org/ns#"
   xmlns:rdf="http://www.w3.org/1999/02/22-rdf-syntax-ns#"
   xmlns:svg="http://www.w3.org/2000/svg"
   xmlns="http://www.w3.org/2000/svg"
   xmlns:sodipodi="http://sodipodi.sourceforge.net/DTD/sodipodi-0.dtd"
   xmlns:inkscape="http://www.inkscape.org/namespaces/inkscape"
   width="210mm"
   height="297mm"
   viewBox="0 0 210 297"
   version="1.1"
   id="svg1205"
   inkscape:version="0.92.4 (5da689c313, 2019-01-14)"
   sodipodi:docname="IOT_WHITE.svg">
  <defs
     id="defs1199" />
  <sodipodi:namedview
     id="base"
     pagecolor="#ffffff"
     bordercolor="#666666"
     borderopacity="1.0"
     inkscape:pageopacity="0.0"
     inkscape:pageshadow="2"
     inkscape:zoom="0.35"
     inkscape:cx="400"
     inkscape:cy="560"
     inkscape:document-units="mm"
     inkscape:current-layer="layer1"
     showgrid="false"
     inkscape:window-width="1920"
     inkscape:window-height="1027"
     inkscape:window-x="-8"
     inkscape:window-y="-8"
     inkscape:window-maximized="1" />
  <metadata
     id="metadata1202">
    <rdf:RDF>
      <cc:Work
         rdf:about="">
        <dc:format>image/svg+xml</dc:format>
        <dc:type
           rdf:resource="http://purl.org/dc/dcmitype/StillImage" />
        <dc:title></dc:title>
      </cc:Work>
    </rdf:RDF>
  </metadata>
  <g
     inkscape:label="Layer 1"
     inkscape:groupmode="layer"
     id="layer1">
    <path
       style="fill:#ffffff;stroke-width:0.33431369"
       d="m 93.056745,223.50257 c -2.19004,-0.70817 -4.14228,-2.81922 -4.78435,-5.17357 -0.1902,-0.69748 -0.31712,-9.68418 -0.31712,-22.45673 v -21.29392 l -3.17852,-0.19652 c -6.339659,-0.39194 -11.292911,-3.2852 -14.425664,-8.42623 l -1.467023,-2.40747 -2.840625,-0.0201 -2.840613,-0.0201 -2.500024,3.47165 c -1.375007,1.9094 -2.517311,3.6892 -2.538443,3.95511 -0.02267,0.28479 2.237653,1.85714 5.499941,3.82602 4.333634,2.61546 5.60604,3.54493 5.849499,4.27294 0.452146,1.35203 -0.104363,2.71783 -1.35687,3.33023 l -1.051779,0.51426 -0.0074,11.41486 -0.0074,11.41489 -0.800189,0.8415 -0.800189,0.84151 H 48.834106 32.178271 l -0.800189,-0.84151 -0.800189,-0.8415 -0.0074,-11.41486 -0.0074,-11.41486 -1.051767,-0.51426 c -1.252754,-0.61252 -1.809016,-1.97821 -1.356685,-3.33081 0.252576,-0.75527 2.156319,-2.04556 10.087543,-6.83694 5.376923,-3.24829 10.108526,-5.91488 10.514664,-5.92575 0.40615,-0.0104 1.552891,0.46361 2.548312,1.05439 1.007361,0.59788 1.923802,0.93991 2.066817,0.77138 0.141326,-0.16653 1.615569,-2.23123 3.2761,-4.58822 1.66053,-2.35699 3.31177,-4.55543 3.669424,-4.8854 0.522686,-0.48226 1.266837,-0.60037 3.792699,-0.60196 l 3.142426,-0.003 0.01885,-3.16924 c 0.0207,-3.49762 0.547255,-5.62901 2.216656,-8.97323 1.892543,-3.79122 6.25507,-7.55287 10.166844,-8.76649 1.115592,-0.34611 1.459199,-0.69222 2.235755,-2.252 1.189664,-2.38955 3.285954,-4.39483 6.004624,-5.74395 1.96297,-0.97412 2.4828,-1.08104 5.2746,-1.08492 2.89077,-0.004 3.14521,-0.0614 3.82025,-0.86139 0.39776,-0.47139 0.72784,-0.96956 0.7335,-1.10704 0.006,-0.13748 -2.98067,-2.87588 -6.63631,-6.08533 l -6.64664,-5.8353 h -9.979557 -9.979571 v 11.50057 11.50058 l -0.800189,0.8415 -0.800188,0.8415 H 46.22537 29.569547 l -0.800189,-0.8415 -0.800201,-0.8415 v -21.64813 c 0,-24.093887 -0.08945,-23.08873 2.220686,-24.942323 l 1.150917,-0.923446 14.462996,-0.09602 c 16.14584,-0.107159 15.895728,-0.139216 17.636717,2.259346 l 0.878097,1.209769 0.09857,7.827124 0.09857,7.82714 h 10.872588 10.872577 l 7.82036,6.8547 7.820355,6.85471 1.79218,-0.86286 c 0.9857,-0.47457 2.54193,-1.05014 3.45828,-1.27905 l 1.66608,-0.4162 v -2.09555 -2.09555 l -7.08472,-4.93715 c -3.896595,-2.71544 -7.417425,-5.30681 -7.824075,-5.7586 -0.69258,-0.76946 -0.73937,-1.11115 -0.73937,-5.399655 v -4.578236 h 2.60803 2.60802 v 3.376274 3.376267 l 7.455375,5.21683 c 4.70114,3.28957 7.5916,5.53123 7.82409,6.06785 0.2028,0.46805 0.36872,2.19572 0.36872,3.83926 v 2.98826 l 1.71152,0.42366 c 2.11089,0.52253 5.27062,2.12503 6.93856,3.51898 0.92733,0.775 1.31156,0.93193 1.47996,0.60449 0.12509,-0.24324 1.50246,-3.60492 3.06081,-7.47038 1.55835,-3.86548 3.13177,-7.29812 3.49647,-7.62809 0.57628,-0.5214 1.40163,-0.59996 6.30321,-0.59996 h 5.64011 l 0.1104,-3.71343 c 0.1014,-3.41256 0.18149,-3.81142 0.98846,-4.92288 1.73721,-2.392726 1.24231,-2.334443 19.82312,-2.334443 18.58158,0 18.08641,-0.05831 19.82313,2.335213 l 0.8781,1.21021 0.0932,12.46308 c 0.10412,13.9309 0.0938,14.00719 -2.14985,15.80885 -1.09382,0.87837 -1.36072,0.9289 -5.46834,1.03517 l -4.31841,0.11169 0.80206,2.45954 c 0.98829,3.03063 0.84316,4.45454 -0.53015,5.20138 -0.77166,0.41964 -2.52379,0.5151 -9.45431,0.5151 h -8.5071 l -0.80019,-0.84151 c -0.99982,-1.05144 -1.00191,-1.84303 -0.0131,-4.90064 l 0.78718,-2.43387 -4.31841,-0.11169 c -4.10762,-0.10625 -4.37453,-0.1568 -5.46835,-1.03517 -2.00001,-1.60606 -2.21972,-2.52938 -2.21972,-9.32772 v -6.03352 h -4.36445 -4.36445 l -3.16994,7.77458 -3.16995,7.77459 0.83463,2.59619 c 0.45904,1.42791 0.87881,2.88738 0.93281,3.2433 0.0715,0.47062 0.58718,0.77545 1.89121,1.11773 6.26509,1.64446 11.08166,6.42774 13.24,13.14851 0.84311,2.62528 0.84058,8.35913 -0.005,10.97072 -1.74865,5.40183 -4.80367,9.23172 -9.27929,11.63292 -2.08224,1.11712 -6.04728,2.08051 -8.56285,2.08051 h -2.22067 l -0.0907,22.02717 c -0.0996,24.1915 0.0123,22.85424 -2.09118,25.06595 -2.04046,2.14581 -1.69459,2.09777 -15.60372,2.16758 -6.992785,0.0351 -13.132455,-0.0715 -13.643745,-0.23678 z m 25.542875,-5.82666 c 0.50713,-0.53329 0.65202,-1.14278 0.65202,-2.74267 v -2.05702 H 106.21149 93.171345 v 2.05702 c 0,3.60718 -0.68021,3.42835 13.040145,3.42835 11.30146,0 11.76027,-0.0254 12.38813,-0.68568 z m 0.65202,-26.74117 V 174.47865 H 106.21149 93.171345 v 16.45609 16.45611 h 13.040145 13.04015 z m -14.93934,10.17727 c -1.61899,-1.8123 -0.42535,-4.69189 1.94487,-4.69189 1.50472,0 2.56234,1.15189 2.56234,2.79072 0,2.43424 -2.9278,3.6692 -4.50721,1.90117 z m -1.73747,-8.69982 -1.74241,-1.86683 0.93198,-0.79071 c 2.39746,-2.03411 6.49671,-2.03411 8.89418,0 l 0.93197,0.79071 -1.74241,1.86683 c -1.64821,1.76591 -1.7936,1.84651 -2.68953,1.49087 -0.68704,-0.27272 -1.2072,-0.27272 -1.89425,0 -0.89593,0.35564 -1.04132,0.27504 -2.68953,-1.49087 z m -5.503765,-5.776 -1.74455,-1.8577 0.78268,-0.87614 c 1.20339,-1.34709 4.905535,-3.13275 7.509715,-3.62218 3.23777,-0.60849 6.45587,-0.099 9.55792,1.5133 1.28649,0.66865 2.69469,1.61381 3.12935,2.10037 l 0.79028,0.88465 -1.74455,1.8577 -1.74455,1.8577 -1.45788,-1.05484 c -0.80183,-0.58016 -2.12246,-1.26517 -2.93473,-1.52225 -3.01819,-0.95523 -6.28609,-0.39887 -8.94126,1.52225 l -1.457875,1.05484 z m -56.060309,9.2541 c 0,-8.19516 -0.505067,-7.69822 7.824089,-7.69822 8.329144,0 7.82409,-0.49694 7.82409,7.69822 v 6.01519 h 2.608021 2.608034 v -9.59939 -9.5994 H 48.834845 35.794688 v 9.5994 9.59939 h 2.608034 2.608034 z m 10.432111,1.90117 v -4.11403 h -2.608022 -2.608034 v 4.11403 4.11402 h 2.608034 2.608022 z m 5.514899,-20.71155 c -0.07467,-0.0778 -1.932932,-1.22662 -4.129382,-2.55298 l -3.993539,-2.41156 -3.993551,2.41156 c -2.196449,1.32636 -4.054664,2.47519 -4.129381,2.55298 -0.07467,0.0777 3.580611,0.14142 8.122932,0.14142 4.542309,0 8.197625,-0.0636 8.122921,-0.14142 z m 31.062309,-10.91502 c 0.15717,-3.03342 0.6113,-4.30298 2.09868,-5.86716 2.054,-2.16005 1.62345,-2.10377 16.092735,-2.10377 14.46928,0 14.03872,-0.0562 16.09272,2.10377 1.49332,1.5704 1.9414,2.83133 2.10094,5.91212 l 0.14879,2.87336 2.86609,-0.17185 c 5.21515,-0.31271 9.05732,-2.94369 11.31531,-7.7483 1.15051,-2.4481 1.21753,-2.77195 1.21753,-5.8832 0,-3.11127 -0.067,-3.4351 -1.21753,-5.8832 -2.09889,-4.46607 -5.92485,-7.27015 -10.53765,-7.72315 -2.99014,-0.29364 -3.55258,-0.88513 -3.83181,-4.02964 -0.25771,-2.90225 -1.59929,-6.05788 -3.49484,-8.22049 -1.27742,-1.4574 -5.32194,-3.97021 -6.39026,-3.97021 -0.35828,0 -0.4452,1.10444 -0.4452,5.65679 0,4.90445 0.0679,5.65678 0.51027,5.65678 0.28064,0 1.27584,0.80995 2.21157,1.79989 2.36776,2.50496 3.00852,5.03227 2.09775,8.27398 -0.52907,1.88314 -3.22973,4.72324 -5.02042,5.27964 -3.05673,0.94976 -5.49337,0.28017 -7.79731,-2.14273 -2.30394,-2.42288 -2.94066,-4.98534 -2.03753,-8.19988 0.43083,-1.53345 3.42141,-5.0109 4.30934,-5.0109 0.4424,0 0.51026,-0.75233 0.51026,-5.65678 0,-4.29702 -0.098,-5.65672 -0.4075,-5.65652 -0.80878,6.9e-4 -4.39256,1.99459 -5.6203,3.12718 -0.69039,0.63689 -1.74778,1.96717 -2.34975,2.95617 -0.601965,0.98898 -1.467425,2.05513 -1.923245,2.36921 -0.77277,0.53248 -0.94478,0.53259 -2.54621,0.001 -0.94459,-0.31312 -2.23625,-0.56931 -2.87033,-0.56931 -3.01086,0 -6.32689,2.51226 -7.27395,5.51082 -0.64029,2.02725 -1.23016,2.58356 -3.242131,3.05773 -8.284072,1.95235 -12.592977,11.39481 -8.841997,19.37624 2.323631,4.9443 6.503161,7.62838 11.969788,7.68696 l 2.15964,0.0232 0.14655,-2.82839 z m -5.28085,-16.37039 v -2.74269 h 2.60803 2.60802 v 2.74269 2.74267 h -2.60802 -2.60803 z m 10.43212,0 v -2.74269 h 2.60802 2.60803 v 2.74269 2.74267 h -2.60803 -2.60802 z m 31.296345,0 v -2.74269 h 2.60804 2.60803 v 2.74269 2.74267 h -2.60803 -2.60804 z m -5.21605,17.14176 c 0,-3.60719 0.68021,-3.42835 -13.04015,-3.42835 -13.720355,0 -13.040145,-0.17884 -13.040145,3.42835 v 2.05702 h 13.040145 13.04015 z m -6.01626,-20.72595 c 1.61705,-1.70054 0.47122,-4.64387 -1.80783,-4.64387 -1.34024,0 -2.60804,1.33325 -2.60804,2.74268 0,0.66797 0.29579,1.37074 0.8002,1.90119 0.50441,0.53044 1.17266,0.8415 1.80784,0.8415 0.63518,0 1.30343,-0.31106 1.80783,-0.8415 z M 59.266956,130.5957 v -2.74268 H 46.226811 33.186666 v 2.74268 2.74269 h 13.040145 13.040145 z m 108.101854,1.45706 -0.42324,-1.28564 h -3.35743 -3.35742 l -0.42326,1.28564 -0.42324,1.28563 h 4.20392 4.20391 z m 11.86751,-8.31377 v -1.37134 h -15.64818 -15.64818 v 1.37134 1.37135 h 15.64818 15.64818 z M 59.266956,108.65424 V 94.940802 H 46.226811 33.186666 v 13.713438 13.71341 h 13.040145 13.040145 z m -16.202432,10.35335 c -3.095752,-1.16328 -4.700319,-2.66355 -6.31765,-5.90702 -0.62493,-1.25325 -0.765221,-2.06282 -0.770495,-4.44633 -0.0062,-2.66793 0.08711,-3.09662 1.101287,-5.07444 1.951131,-3.805105 5.014428,-5.720397 9.149145,-5.720397 4.231872,0 7.373028,2.022622 9.199084,5.923387 0.922664,1.97096 1.070027,2.64188 1.070027,4.87145 0,2.22999 -0.147302,2.90037 -1.070889,4.87327 -0.664161,1.41876 -1.551992,2.68833 -2.337604,3.34266 -2.985365,2.48653 -6.882279,3.31755 -10.022905,2.13742 z m 5.225506,-5.33563 c 3.34956,-1.47178 4.166112,-6.08982 1.561171,-8.82926 -2.114636,-2.22381 -5.134143,-2.22381 -7.248779,0 -4.03155,4.23971 0.416845,11.14523 5.687608,8.82926 z m 130.94629,-3.64639 v -6.85671 h -15.64818 -15.64818 v 6.85671 6.85672 h 15.64818 15.64818 z m -28.43138,99.71854 c -1.48857,-0.4406 -3.93776,-2.65269 -4.49037,-4.05567 -0.39616,-1.0058 -0.47913,-1.04027 -2.50403,-1.04027 -1.78889,0 -2.21098,-0.12271 -2.89448,-0.84151 l -0.80019,-0.84151 v -7.81713 -7.81712 l 2.80985,-4.45483 c 1.54542,-2.45014 3.12246,-4.72137 3.50454,-5.04715 0.62345,-0.5316 1.70332,-0.59313 10.52964,-0.59996 5.40922,-0.004 10.07726,0.0902 10.37341,0.20967 0.29615,0.11946 1.70073,2.04171 3.12127,4.27153 2.29206,3.59783 2.72073,4.09234 3.80776,4.39249 0.67371,0.18603 2.98535,0.80206 5.13698,1.36895 2.82585,0.74453 4.07045,1.23615 4.48255,1.77065 0.49848,0.64653 0.5705,1.55951 0.5705,7.23144 0,6.43506 -0.007,6.49878 -0.80019,7.33297 -0.68488,0.72026 -1.1045,0.84151 -2.91206,0.84151 -1.84795,0 -2.13859,0.0885 -2.32562,0.7082 -0.60491,2.00433 -3.44864,4.2124 -5.97146,4.63664 -2.94166,0.49467 -6.81647,-1.62407 -7.87226,-4.30457 -0.38982,-0.98969 -0.50184,-1.04027 -2.30423,-1.04027 -1.62828,0 -1.92455,0.0995 -2.10825,0.7082 -0.34309,1.13676 -2.10688,3.04618 -3.50848,3.79814 -1.53621,0.82418 -4.15857,1.08871 -5.84488,0.5896 z m 4.15892,-5.93745 c 0.5044,-0.53045 0.80019,-1.2332 0.80019,-1.90118 0,-0.66797 -0.29579,-1.37072 -0.80019,-1.90117 -0.5044,-0.53046 -1.17266,-0.84151 -1.80784,-0.84151 -0.63517,0 -1.30344,0.31105 -1.80784,0.84151 -0.5044,0.53045 -0.80019,1.2332 -0.80019,1.90117 0,0.66798 0.29579,1.37073 0.80019,1.90118 0.5044,0.53045 1.17267,0.84151 1.80784,0.84151 0.63518,0 1.30344,-0.31106 1.80784,-0.84151 z m 18.2562,0 c 0.50441,-0.53045 0.8002,-1.2332 0.8002,-1.90118 0,-0.66797 -0.29579,-1.37072 -0.8002,-1.90117 -0.5044,-0.53046 -1.17265,-0.84151 -1.80783,-0.84151 -0.63518,0 -1.30343,0.31105 -1.80783,0.84151 -0.50442,0.53045 -0.80021,1.2332 -0.80021,1.90117 0,0.66798 0.29579,1.37073 0.80021,1.90118 0.5044,0.53045 1.17265,0.84151 1.80783,0.84151 0.63518,0 1.30343,-0.31106 1.80783,-0.84151 z m -26.90549,-5.68414 c 0.22536,-0.57214 1.06169,-1.64375 1.85851,-2.38135 2.88105,-2.66695 7.08482,-2.66695 9.96588,0 0.79683,0.7376 1.63315,1.80921 1.8585,2.38135 0.3892,0.98813 0.50384,1.04028 2.28667,1.04028 1.78282,0 1.89746,-0.0521 2.28665,-1.04028 0.22536,-0.57214 1.06169,-1.64375 1.8585,-2.38135 2.88106,-2.66695 7.08483,-2.66695 9.96589,0 0.79682,0.7376 1.63314,1.80921 1.8585,2.38135 0.69346,1.76063 0.98265,1.17122 0.98265,-2.00279 v -3.04308 l -4.0665,-1.07095 -4.06649,-1.07096 h -12.8857 -12.8857 v 4.11403 c 0,2.26271 0.1289,4.11403 0.28646,4.11403 0.15754,0 0.47083,-0.46812 0.69618,-1.04028 z m 6.84145,-14.04448 v -1.37135 h -1.9127 c -1.87032,0 -1.93183,0.0303 -2.77566,1.37135 l -0.86295,1.37134 h 2.77565 2.77566 z m 12.51245,0 -0.86295,-1.37135 h -3.21673 -3.21671 v 1.37135 1.37134 h 4.07967 4.07968 z m -9.54696,-13.50852 c -0.97717,-1.04053 -1.64114,-2.01916 -1.51527,-2.23332 0.41078,-0.69896 2.81319,-1.77823 4.39751,-1.97556 1.77172,-0.22067 4.25777,0.51321 5.54014,1.63543 l 0.79274,0.69375 -1.80895,1.90234 c -1.58607,1.66798 -1.89197,1.85563 -2.48283,1.52307 -0.83963,-0.47255 -2.24151,-0.4929 -2.50977,-0.0364 -0.34006,0.57865 -0.61328,0.40779 -2.41357,-1.50927 z m -5.57455,-5.86279 c -1.75961,-1.87373 -1.76737,-1.89126 -1.12987,-2.55159 2.16766,-2.24528 6.9626,-4.13259 10.49937,-4.13259 3.12583,0 7.6136,1.78902 9.99757,3.98547 l 0.94683,0.87236 -1.79932,1.89222 -1.79932,1.8922 -1.40873,-1.07317 c -3.0076,-2.29118 -7.36337,-2.68398 -10.60528,-0.95636 -0.90428,0.48189 -1.83627,1.11961 -2.07109,1.41716 -0.23482,0.29755 -0.52401,0.541 -0.64266,0.541 -0.11865,0 -1.01303,-0.84902 -1.9875,-1.8867 z m -69.629689,-76.107631 -0.814297,-0.856352 0.09561,-9.918535 c 0.09069,-9.407021 0.130434,-9.968421 0.770789,-10.885764 1.571718,-2.251558 0.575755,-2.16609 25.242117,-2.16609 24.66636,0 23.6704,-0.08552 25.24212,2.16609 0.64035,0.917343 0.6801,1.478743 0.77079,10.885764 l 0.0956,9.918535 -0.81431,0.856352 -0.8143,0.85634 h -24.4799 -24.47991 z m 9.646044,-7.901547 c 0,-3.017415 0.0623,-3.338114 0.80019,-4.114026 l 0.80019,-0.841503 h 14.047795 14.04779 l 0.80019,0.841503 c 0.73782,0.775912 0.8002,1.096611 0.8002,4.114026 v 3.272523 h 2.60802 2.60804 V 77.113361 70.256659 H 106.21149 85.347255 v 6.856702 6.856714 h 2.60802 2.60804 z m 26.080285,1.901185 v -1.37135 H 106.21149 95.779365 v 1.37135 1.371338 h 10.432125 10.43211 z"
       id="path1231"
       inkscape:connector-curvature="0" />
  </g>
</svg>
