<?xml version="1.0" encoding="UTF-8" standalone="no"?>
<!-- Created with Inkscape (http://www.inkscape.org/) -->

<svg
   xmlns:dc="http://purl.org/dc/elements/1.1/"
   xmlns:cc="http://creativecommons.org/ns#"
   xmlns:rdf="http://www.w3.org/1999/02/22-rdf-syntax-ns#"
   xmlns:svg="http://www.w3.org/2000/svg"
   xmlns="http://www.w3.org/2000/svg"
   xmlns:sodipodi="http://sodipodi.sourceforge.net/DTD/sodipodi-0.dtd"
   xmlns:inkscape="http://www.inkscape.org/namespaces/inkscape"
   width="210mm"
   height="297mm"
   viewBox="0 0 210 297"
   version="1.1"
   id="svg1205"
   inkscape:version="0.92.4 (5da689c313, 2019-01-14)"
   sodipodi:docname="OFFICE_AUTO_WHITE.svg">
  <defs
     id="defs1199" />
  <sodipodi:namedview
     id="base"
     pagecolor="#ffffff"
     bordercolor="#666666"
     borderopacity="1.0"
     inkscape:pageopacity="0.0"
     inkscape:pageshadow="2"
     inkscape:zoom="0.35"
     inkscape:cx="400"
     inkscape:cy="560"
     inkscape:document-units="mm"
     inkscape:current-layer="layer1"
     showgrid="false"
     inkscape:window-width="1920"
     inkscape:window-height="1027"
     inkscape:window-x="-8"
     inkscape:window-y="-8"
     inkscape:window-maximized="1" />
  <metadata
     id="metadata1202">
    <rdf:RDF>
      <cc:Work
         rdf:about="">
        <dc:format>image/svg+xml</dc:format>
        <dc:type
           rdf:resource="http://purl.org/dc/dcmitype/StillImage" />
        <dc:title></dc:title>
      </cc:Work>
    </rdf:RDF>
  </metadata>
  <g
     inkscape:label="Layer 1"
     inkscape:groupmode="layer"
     id="layer1">
    <path
       style="fill:#ffffff;stroke-width:0.35208929"
       d="m 124.44093,240.8368 c -2.04457,-0.88882 -2.55646,-2.26268 -2.56049,-6.87187 l -0.004,-4.04903 -1.05404,-0.59978 c -0.88733,-0.50492 -1.05403,-0.81647 -1.05403,-1.96994 0,-1.35508 0.79153,-2.53557 1.70014,-2.53557 0.29166,0 0.41278,-1.21122 0.41372,-4.13705 10e-4,-3.48196 0.11018,-4.31553 0.68861,-5.26425 1.35419,-2.22095 1.32899,-2.21765 16.89705,-2.21765 h 14.10106 v -2.64066 -2.64068 h -14.20756 c -14.20612,0 -14.20767,-8e-5 -15.39878,-0.80276 -2.04799,-1.38016 -2.07083,-1.52658 -2.07651,-13.31676 -0.005,-10.64249 0.005,-10.78936 0.7992,-11.97104 0.4596,-0.68357 1.32737,-1.37648 2.02452,-1.6166 0.86025,-0.29628 5.29613,-0.4261 15.03961,-0.44011 l 13.81952,-0.0198 v -2.64067 -2.64067 h -14.29332 c -15.86027,0 -15.74975,0.0153 -16.8609,-2.32633 -0.78985,-1.66448 -0.78961,-21.86024 2.7e-4,-23.38772 1.07855,-2.08569 1.20233,-2.10101 16.97853,-2.10101 h 14.37878 l -0.0137,-3.4828 c -0.012,-2.94258 0.0904,-3.59794 0.65706,-4.22507 0.88535,-0.97979 2.78102,-0.98746 3.75328,-0.0152 0.65457,0.65456 0.71601,1.07596 0.61617,4.22583 l -0.11099,3.49877 14.55738,-7.1e-4 c 13.09012,-7e-4 14.65986,0.0598 15.57426,0.59992 1.98092,1.17015 2.08453,1.83076 2.08453,13.28952 0,11.10007 -0.0539,11.49982 -1.76095,13.04545 -0.7433,0.67306 -1.40843,0.71093 -15.43995,0.8794 l -14.66318,0.17605 -0.10313,2.5379 -0.10314,2.53791 14.53882,0.10273 c 13.75048,0.0971 14.59391,0.14007 15.55509,0.79088 1.86605,1.2635 1.9766,2.01749 1.97516,13.47216 -10e-4,9.77908 -0.0476,10.56195 -0.68861,11.61316 -1.16532,1.91112 -2.21414,2.21757 -7.58983,2.21757 -5.89888,0 -6.8493,-0.36642 -6.8493,-2.64066 0,-2.1884 1.01934,-2.64068 5.95159,-2.64068 h 3.89613 v -8.80223 -8.80223 h -29.22291 -29.22341 v 8.80223 8.80223 h 19.66952 c 19.36599,0 19.68384,0.0106 20.59723,0.72973 1.28297,1.00919 1.28297,2.81269 0,3.82188 -0.80925,0.63655 -1.41618,0.72973 -4.75322,0.72973 h -3.82549 v 2.64068 2.64066 l 14.34764,10e-4 c 13.60916,0.001 14.40566,0.0367 15.47483,0.68861 2.20791,1.34624 2.25756,1.66423 2.144,13.73087 -0.0979,10.4059 -0.13447,10.92254 -0.83955,11.87272 -0.40543,0.54637 -1.27686,1.1825 -1.93649,1.41364 -1.90699,0.6682 -62.05543,0.60955 -63.60022,-0.062 z M 185.6095,227.27523 V 218.473 h -29.22341 -29.22341 v 8.80223 8.80224 h 29.22341 29.22341 z m -50.27042,1.91653 c -1.06276,-0.74439 -1.08614,-2.94097 -0.0414,-3.88647 0.71082,-0.64329 1.57352,-0.67073 21.08839,-0.67073 19.51488,0 20.37758,0.0274 21.0884,0.67073 0.96711,0.87522 0.98599,2.78135 0.037,3.73039 -0.68793,0.68793 -1.17363,0.70418 -21.04701,0.70418 -17.84202,0 -20.43905,-0.0673 -21.12536,-0.5481 z m 50.27042,-68.8135 v -8.80222 h -29.22341 -29.22341 v 8.80222 8.80225 h 29.22341 29.22341 z m -50.135,2.02453 c -1.27354,-1.14419 -1.35805,-2.64068 -0.21376,-3.78496 0.68794,-0.68795 1.17363,-0.70419 21.06399,-0.70419 h 20.3598 l 0.76554,0.81489 c 1.08327,1.15308 1.0112,2.81376 -0.16215,3.73672 -0.9138,0.71879 -1.22734,0.72973 -20.92967,0.72973 h -20.00198 z m -67.110729,66.63289 c -0.949024,-0.94904 -0.930141,-2.85517 0.03699,-3.73039 0.6105,-0.55249 1.286698,-0.67073 3.836019,-0.67073 3.622344,0 4.577157,0.52552 4.577157,2.5192 0,2.07062 -0.912349,2.5861 -4.577157,2.5861 -2.699348,0 -3.273119,-0.10433 -3.872986,-0.70418 z m 13.027313,0 c -0.949038,-0.94904 -0.930154,-2.85517 0.03699,-3.73039 0.610487,-0.55249 1.286684,-0.67073 3.836006,-0.67073 3.622338,0 4.577165,0.52552 4.577165,2.5192 0,2.07062 -0.912363,2.5861 -4.577165,2.5861 -2.699348,0 -3.27312,-0.10433 -3.872973,-0.70418 z m 13.027294,0 c -0.949037,-0.94904 -0.930154,-2.85517 0.037,-3.73039 0.610499,-0.55249 1.286697,-0.67073 3.836019,-0.67073 3.622343,0 4.577153,0.52552 4.577153,2.5192 0,2.07062 -0.91236,2.5861 -4.577153,2.5861 -2.699362,0 -3.273133,-0.10433 -3.872987,-0.70418 z m 13.027302,0 c -0.94904,-0.94904 -0.93014,-2.85517 0.037,-3.73039 0.6105,-0.55249 1.2867,-0.67073 3.83602,-0.67073 3.62235,0 4.57715,0.52552 4.57715,2.5192 0,2.07062 -0.91235,2.5861 -4.57715,2.5861 -2.69935,0 -3.27314,-0.10433 -3.87299,-0.70418 z m -47.708095,-0.0579 c -3.118888,-1.72075 -4.659874,-5.31683 -2.992761,-6.98396 0.927959,-0.92794 2.640823,-0.91348 3.432874,0.029 0.338884,0.40324 1.315933,1.42415 2.171221,2.26869 1.197286,1.18225 1.555053,1.79574 1.555053,2.66654 0,1.95944 -2.275937,3.06273 -4.166387,2.01973 z m -3.12131,-11.93876 c -0.884523,-0.69576 -0.927719,-0.88361 -0.927719,-4.03531 0,-2.9471 0.08357,-3.38342 0.770573,-4.02347 0.980975,-0.91392 2.548084,-0.92014 3.454499,-0.0137 0.604591,0.60459 0.704183,1.17362 0.704183,4.02348 0,3.16651 -0.04272,3.35287 -0.927706,4.04901 -0.510229,0.40138 -1.20185,0.72975 -1.536915,0.72975 -0.335078,0 -1.026686,-0.32837 -1.536915,-0.72973 z m 28.885504,-1.25155 c -4.715765,-1.01171 -8.989981,-3.51428 -12.357236,-7.23523 -1.819163,-2.01024 -4.341724,-6.31894 -4.860177,-8.30151 -0.197879,-0.75666 -0.366936,-0.79062 -3.936649,-0.79062 h -3.729906 v 1.91095 c 0,1.64505 -0.129081,2.01246 -0.927706,2.64066 -0.510229,0.40136 -1.20185,0.72973 -1.536915,0.72973 -0.335078,0 -1.026686,-0.32837 -1.536915,-0.72973 -0.798638,-0.6282 -0.927719,-0.99561 -0.927719,-2.64066 v -1.91095 l -19.981062,-0.008 c -18.633884,-0.007 -20.076024,-0.0514 -21.389429,-0.65445 -1.675164,-0.76925 -2.425856,-1.55443 -3.155363,-3.3004 -0.476336,-1.14 -0.541568,-6.00666 -0.541568,-40.40067 0,-32.62342 0.08118,-39.2923 0.489842,-40.2375 0.368559,-0.85246 15.925486,-16.824531 16.780069,-17.227849 0.08716,-0.04112 9.031153,-0.159975 19.875508,-0.264065 l 19.717006,-0.189257 0.192277,-1.408366 c 0.455643,-3.337181 2.346279,-4.400736 7.824873,-4.401801 l 3.601797,-7.05e-4 0.746713,-1.902347 0.746713,-1.90236 -2.45955,-2.410047 c -4.587244,-4.494904 -4.710776,-6.374775 -0.703438,-10.704921 1.305554,-1.410735 3.140552,-3.171465 4.077773,-3.912762 1.464802,-1.158562 1.953127,-1.347792 3.478212,-1.347792 1.753757,0 1.809848,0.03487 4.876047,3.035372 l 3.101894,3.035358 1.958065,-0.811573 1.958064,-0.811573 v -3.901704 c 0,-4.456273 0.497747,-5.877814 2.41887,-6.908119 1.477381,-0.792317 6.511001,-1.162314 9.851141,-0.724104 4.30576,0.564909 5.33446,2.086493 5.33446,7.890478 v 3.643449 l 1.87899,0.778797 1.87899,0.778797 1.93462,-1.8583 c 4.13649,-3.97327 4.39851,-4.146878 6.25907,-4.146878 1.4675,0 1.96384,0.198639 3.42062,1.368884 1.82481,1.46588 4.80419,4.500626 6.04813,6.1605 0.93666,1.249849 1.02999,3.880359 0.18291,5.155519 -0.31806,0.478797 -1.66588,1.984426 -2.99514,3.345844 l -2.41685,2.475307 0.77644,1.837793 0.77644,1.837779 h 3.63837 c 5.34078,0 7.38811,1.156653 7.75135,4.379192 l 0.18104,1.606326 h 1.84323 c 2.40914,0 3.69863,0.930748 3.69863,2.669668 0,1.66719 -0.95883,2.39521 -3.4397,2.61167 l -2.01768,0.17604 -0.18585,1.61483 c -0.41306,3.58934 -2.02033,4.5464 -7.63683,4.54742 l -3.79627,7.1e-4 -0.78743,2.00578 -0.78742,2.00579 2.98798,3.05348 c 2.94028,3.00473 2.98798,3.08146 2.98798,4.80643 0,2.09117 -0.77387,3.29345 -4.43266,6.88657 -4.83608,4.74923 -6.45057,4.81489 -11.03689,0.44886 l -3.01514,-2.87034 -1.81464,0.72127 -1.81465,0.72127 -0.12775,4.22507 c -0.20437,6.75813 -0.95218,7.3905 -8.74211,7.39255 -4.49662,0.001 -5.25222,-0.0841 -6.337604,-0.71483 -1.974858,-1.14768 -2.463449,-2.54264 -2.464088,-7.03519 l -5.46e-4,-3.87837 -1.719677,-0.61077 c -0.945817,-0.33593 -1.817246,-0.61078 -1.936493,-0.61078 -0.119234,0 -0.216803,4.75321 -0.216803,10.56268 0,10.09323 -0.03127,10.59397 -0.704183,11.26686 -0.948612,0.94861 -2.854991,0.93011 -3.730386,-0.0362 -0.610685,-0.67411 -0.680709,-1.45865 -0.782203,-8.7647 l -0.111516,-8.0243 -1.3777,0.54117 c -2.147188,0.84345 -3.860452,0.009 -7.59097,-3.69618 -5.363366,-5.32727 -5.491183,-7.04751 -0.875502,-11.78247 l 2.733522,-2.80413 -0.734311,-1.89944 -0.734311,-1.89943 -3.79627,-0.007 c -2.494921,-0.004 -4.21219,-0.17979 -5.009564,-0.51296 -1.374672,-0.57437 -2.633797,-2.37884 -2.635753,-3.77734 -0.0027,-2.20022 1.354032,-2.05331 -18.967005,-2.05331 H 30.155616 l -7.128155,7.13452 -7.128155,7.13453 0.08956,38.54905 0.08956,38.54907 25.614501,0.0904 25.614487,0.0904 0.0053,-2.20287 c 0.0067,-2.99527 0.798678,-6.12687 2.365574,-9.35822 1.780785,-3.67244 6.251682,-8.25113 9.776297,-10.01199 2.27414,-1.13614 4.959675,-2.07216 7.277889,-2.53666 l 0.940276,-0.1884 0.11604,-6.47781 c 0.103531,-5.77922 0.188325,-6.55765 0.786715,-7.21814 0.456667,-0.50407 1.096389,-0.74033 2.004547,-0.74033 2.258876,0 2.430021,0.56094 2.430021,7.965 v 6.39996 l 2.552649,0.5694 c 12.126032,2.70479 20.125272,14.88294 17.722232,26.98053 -1.09287,5.50175 -4.30362,10.81868 -8.40891,13.92493 -5.793432,4.38361 -12.572988,5.95781 -19.374217,4.49869 z m 9.649367,-5.35388 c 7.553514,-1.9718 13.367924,-9.55981 13.345594,-17.41644 -0.0184,-6.47792 -4.15419,-13.18597 -9.85329,-15.98156 -2.92874,-1.43663 -4.773479,-1.85034 -8.298214,-1.86103 -4.844561,-0.0146 -8.562012,1.4773 -12.229813,4.90834 -3.716586,3.47668 -5.596737,7.9093 -5.576323,13.14661 0.04591,11.77013 11.12812,20.2019 22.612046,17.20408 z m -7.024345,-9.17712 c -0.265161,-0.16798 -2.530194,-2.34303 -5.033419,-4.83344 -4.235997,-4.21435 -4.544101,-4.61116 -4.447144,-5.72778 0.136919,-1.57679 1.555305,-2.70014 2.963166,-2.3468 0.553717,0.13897 2.41561,1.65104 4.258952,3.45875 l 3.275137,3.21181 4.714741,-4.66854 c 4.534187,-4.48976 4.765308,-4.66428 6.035332,-4.55717 1.605904,0.13545 2.832644,1.5162 2.505424,2.81997 -0.24643,0.98185 -9.991599,11.21322 -11.666045,12.24809 -1.251686,0.77359 -1.862505,0.86619 -2.606144,0.39511 z m 21.079329,-72.39025 c 0.22661,-5.43854 0.35954,-5.64165 4.96401,-7.58459 4.95676,-2.09161 5.51928,-1.98159 9.34908,1.8283 l 2.9376,2.92235 2.4663,-2.44739 2.46629,-2.44739 -2.60233,-2.64929 c -2.96966,-3.02326 -3.38485,-3.69185 -3.38485,-5.4509 0,-1.19369 1.68809,-5.8095 2.73072,-7.46668 0.88268,-1.40298 2.53572,-1.87879 6.52717,-1.87879 4.27158,0 4.12151,0.12815 4.12151,-3.52089 0,-3.669169 0.18473,-3.520899 -4.38671,-3.520899 -3.53091,0 -4.08736,-0.08636 -5.14292,-0.79764 -1.47416,-0.993444 -3.53594,-5.530354 -3.7628,-8.280017 l -0.15345,-1.85983 3.07233,-3.139674 3.07233,-3.139661 -2.21468,-2.306357 c -1.21807,-1.268493 -2.39256,-2.306343 -2.60999,-2.306343 -0.21743,0 -1.341,0.959537 -2.49684,2.13231 -3.96362,4.02171 -5.33793,4.288268 -10.54621,2.045534 -4.01389,-1.72842 -4.40656,-2.399734 -4.40656,-7.533695 0,-4.527787 0.11843,-4.380501 -3.52089,-4.380501 -3.58616,0 -3.44699,-0.177906 -3.5802,4.57665 -0.14515,5.181455 -0.42289,5.647238 -4.379502,7.344745 -2.989421,1.282546 -4.871061,1.662416 -6.370503,1.286085 -0.519185,-0.130278 -2.228349,-1.490578 -3.79816,-3.022835 l -2.8542,-2.785913 -2.43939,2.458233 -2.43939,2.45822 2.934648,2.949978 c 3.677037,3.696239 3.909556,4.627192 2.171767,8.695384 -2.327262,5.448168 -2.214709,5.368537 -7.922215,5.605327 l -4.243197,0.176043 -0.10047,3.403886 -0.10047,3.4039 4.39144,0.11698 c 4.271208,0.11377 4.41993,0.14431 5.431898,1.11482 1.252484,1.20115 3.580851,6.63413 3.580851,8.35547 0,1.51976 -0.520063,2.31522 -3.553052,5.43445 l -2.396461,2.46462 1.164949,1.23231 c 0.640721,0.67778 1.744256,1.78081 2.452312,2.45119 l 1.287376,1.21889 2.93274,-2.91753 c 4.133384,-4.1119 4.310371,-4.12542 11.367252,-0.86844 2.532457,1.1688 2.940987,2.16001 2.940987,7.13562 v 3.92054 l 3.43287,-0.10073 3.43287,-0.10074 z m -7.67148,-10.54525 C 91.469598,115.88406 85.222206,105.9228 87.5546,96.030287 c 2.159298,-9.158353 11.29884,-15.539981 20.37866,-14.229264 4.68616,0.676464 6.56199,2.092681 5.77231,4.357958 -0.56427,1.618662 -1.61519,1.905434 -4.46342,1.217978 -3.00752,-0.7259 -4.25045,-0.733046 -6.91233,-0.03965 -3.887563,1.01258 -7.175041,3.781525 -8.91649,7.510109 -0.792969,1.697827 -0.924698,2.454667 -0.927812,5.331002 -0.0027,3.07247 0.09155,3.54572 1.137589,5.67039 1.374419,2.79183 3.892721,5.26427 6.704013,6.58192 1.74182,0.81639 2.46526,0.94362 5.36552,0.94362 3.07557,0 3.54552,-0.0951 5.69388,-1.15278 6.17656,-3.04071 8.917,-9.70437 6.81821,-16.57916 -0.60817,-1.992118 -0.62765,-2.339705 -0.17604,-3.140579 0.68566,-1.21595 2.1366,-1.671034 3.39885,-1.066043 2.01121,0.963936 3.36503,7.168811 2.57985,11.823962 -1.75588,10.41 -12.35214,17.51164 -22.47274,15.06128 z m 0.80573,-10.71349 c -2.964655,-1.35998 -4.737735,-4.14305 -4.737735,-7.43652 0,-2.482202 0.896407,-4.449416 2.750755,-6.036659 3.38456,-2.89705 7.84437,-2.737149 10.97501,0.393484 4.13394,4.133924 2.81476,10.957205 -2.55108,13.195245 -1.75666,0.73267 -4.70317,0.67979 -6.43695,-0.11551 z m 5.34668,-5.38536 c 1.1165,-1.04891 1.09418,-2.860153 -0.0494,-4.003664 -1.75867,-1.758662 -4.76921,-0.579919 -4.76921,1.867334 0,2.59501 2.94192,3.89932 4.81854,2.13633 z m 28.62995,94.17588 c -1.18419,-0.44523 -1.76045,-1.29826 -1.76045,-2.6059 0,-2.53318 -0.92994,-2.43002 21.90788,-2.43002 19.87338,0 20.35908,0.0162 21.04701,0.70417 0.94893,0.94893 0.93014,2.85512 -0.0367,3.73038 -0.70843,0.64131 -1.61608,0.67357 -20.68525,0.73534 -10.96938,0.0355 -20.18196,-0.0247 -20.47243,-0.13397 z M 32.893875,178.44967 c -1.745267,-0.36066 -2.452311,-3.03505 -1.147383,-4.33998 0.668746,-0.66874 1.173625,-0.70417 10.034539,-0.70417 8.860913,0 9.365806,0.0354 10.034552,0.70417 0.889567,0.88957 0.903766,2.49204 0.03167,3.56992 -0.671993,0.83051 -0.679844,0.83125 -9.418383,0.88218 -4.810221,0.0281 -9.100951,-0.0225 -9.534956,-0.11205 z m -1.147383,-13.49429 c -0.8897,-0.8897 -0.903739,-2.49221 -0.03127,-3.56991 l 0.672911,-0.83122 19.238408,-0.0969 19.238395,-0.0969 1.073953,1.07395 c 0.862061,0.86206 1.029161,1.26323 0.846944,2.03333 -0.124823,0.52766 -0.554689,1.23665 -0.955186,1.57554 -0.674188,0.57048 -2.160575,0.61615 -20.054066,0.61615 -18.856462,0 -19.343017,-0.0172 -20.030087,-0.70417 z m 0.81522,-12.32559 c -1.570436,-0.63274 -2.029139,-3.00869 -0.81522,-4.22261 0.68707,-0.68707 1.173625,-0.70418 20.030087,-0.70418 17.893491,0 19.379878,0.0456 20.054066,0.61615 0.400497,0.3389 0.830323,1.04789 0.955186,1.57555 0.181951,0.76904 0.0157,1.17071 -0.838135,2.0245 l -1.06513,1.06514 -18.775833,-0.0224 c -10.326714,-0.012 -19.121969,-0.16178 -19.545021,-0.33223 z m 0.332163,-12.5643 c -1.742925,-0.34594 -2.45303,-3.02788 -1.147383,-4.33353 0.687217,-0.68721 1.173625,-0.70418 20.19056,-0.70418 18.11221,0 19.525553,0.0435 20.041664,0.61616 1.044304,1.15881 1.092277,2.36216 0.138396,3.47134 l -0.875302,1.0178 -18.779412,0.0446 c -10.328683,0.0245 -19.134518,-0.0259 -19.568523,-0.11205 z m 122.586635,-5.75504 c -1.42053,-0.52549 -1.73509,-1.35602 -1.73509,-4.58115 0,-3.60379 0.52828,-4.56002 2.5192,-4.56002 2.08982,0 2.5861,0.90169 2.5861,4.69864 0,2.69581 -0.11138,3.38659 -0.61615,3.82333 -0.80961,0.7004 -1.88248,0.94161 -2.75406,0.6192 z M 31.812883,126.56393 c -0.955785,-0.89046 -0.998435,-2.44351 -0.09768,-3.55619 l 0.672911,-0.83122 19.238408,-0.0969 19.238394,-0.0969 1.073954,1.07395 c 0.862061,0.86206 1.02916,1.26321 0.846943,2.03332 -0.124822,0.52767 -0.554688,1.23666 -0.955185,1.57555 -0.674122,0.57043 -2.157408,0.61615 -19.987676,0.61615 -18.895492,0 -19.274085,-0.0136 -20.030087,-0.71789 z m 123.667627,-5.28079 c -1.42053,-0.52548 -1.73509,-1.356 -1.73509,-4.58115 0,-3.60378 0.52828,-4.56 2.5192,-4.56 2.08982,0 2.5861,0.90169 2.5861,4.69864 0,2.69579 -0.11138,3.38658 -0.61615,3.82332 -0.80961,0.70039 -1.88248,0.94161 -2.75406,0.61919 z m 0.20141,-12.94133 c -1.06013,-0.33058 -1.7144,-1.22445 -1.94468,-2.65681 -0.12961,-0.80577 -0.45797,-1.81594 -0.72983,-2.24483 -1.17743,-1.85753 -0.0672,-3.973395 2.08499,-3.973395 2.04292,0 3.75832,2.618715 3.75832,5.737425 0,1.37116 -0.17136,2.04764 -0.61615,2.43244 -0.73185,0.63313 -1.81981,0.93368 -2.55265,0.70517 z"
       id="path1244"
       inkscape:connector-curvature="0" />
  </g>
</svg>
