<?xml version="1.0" encoding="UTF-8" standalone="no"?>
<!-- Created with Inkscape (http://www.inkscape.org/) -->

<svg
   xmlns:dc="http://purl.org/dc/elements/1.1/"
   xmlns:cc="http://creativecommons.org/ns#"
   xmlns:rdf="http://www.w3.org/1999/02/22-rdf-syntax-ns#"
   xmlns:svg="http://www.w3.org/2000/svg"
   xmlns="http://www.w3.org/2000/svg"
   xmlns:sodipodi="http://sodipodi.sourceforge.net/DTD/sodipodi-0.dtd"
   xmlns:inkscape="http://www.inkscape.org/namespaces/inkscape"
   width="148.28484mm"
   height="148.32623mm"
   viewBox="0 0 148.28484 148.32623"
   version="1.1"
   id="svg8"
   inkscape:version="0.92.4 (5da689c313, 2019-01-14)"
   sodipodi:docname="phone_white.svg">
  <defs
     id="defs2" />
  <sodipodi:namedview
     id="base"
     pagecolor="#ffffff"
     bordercolor="#666666"
     borderopacity="1.0"
     inkscape:pageopacity="0.0"
     inkscape:pageshadow="2"
     inkscape:zoom="0.35"
     inkscape:cx="266.15091"
     inkscape:cy="271.9301"
     inkscape:document-units="mm"
     inkscape:current-layer="layer1"
     showgrid="false"
     fit-margin-top="2"
     fit-margin-left="2"
     fit-margin-right="2"
     fit-margin-bottom="2"
     inkscape:window-width="1920"
     inkscape:window-height="1027"
     inkscape:window-x="-8"
     inkscape:window-y="-8"
     inkscape:window-maximized="1" />
  <metadata
     id="metadata5">
    <rdf:RDF>
      <cc:Work
         rdf:about="">
        <dc:format>image/svg+xml</dc:format>
        <dc:type
           rdf:resource="http://purl.org/dc/dcmitype/StillImage" />
        <dc:title></dc:title>
      </cc:Work>
    </rdf:RDF>
  </metadata>
  <g
     inkscape:label="Layer 1"
     inkscape:groupmode="layer"
     id="layer1"
     transform="translate(-35.414238,-72.45527)">
    <path
       style="fill:#ffffff;stroke-width:0.28222221"
       d="m 102.98088,218.4959 c -11.961603,-1.14049 -23.409393,-5.23409 -33.443333,-11.95896 -27.60687,-18.50244 -39.029,-53.03519 -27.90767,-84.37375 2.56182,-7.21892 7.41668,-15.72768 12.3243,-21.59993 2.97226,-3.556481 8.60071,-8.958393 12.00995,-11.526565 9.78192,-7.368686 20.82756,-12.019767 33.06564,-13.923219 5.265233,-0.818928 15.223453,-0.884959 20.320003,-0.134738 16.39023,2.412672 30.33551,9.375403 41.62777,20.784306 11.07245,11.186816 17.85925,24.970006 20.22064,41.065766 0.6005,4.09318 0.67796,14.12726 0.14052,18.20334 -1.62947,12.35833 -5.43508,22.4001 -12.35342,32.59666 -2.15211,3.17188 -4.09241,5.00025 -6.5336,6.15669 -1.79213,0.84896 -2.07847,0.89887 -5.15766,0.89887 -3.20241,0 -3.2984,-0.0189 -5.41615,-1.06554 -1.73236,-0.85617 -2.87118,-1.75457 -5.79611,-4.57246 l -3.64014,-3.50693 -1.24482,1.28782 -1.24481,1.28782 -5.22111,-0.16191 c -10.82689,-0.33576 -19.37272,-2.41597 -28.64555,-6.97284 -23.347813,-11.47361 -37.956743,-35.14491 -37.958653,-61.5056 l -2.4e-4,-3.24297 5.57183,-5.57706 5.57183,-5.57706 9.94937,9.94641 9.94938,9.94641 -3.98761,3.99473 -3.9876,3.99473 0.35685,1.93445 c 2.42019,13.11927 12.253683,24.33208 24.953163,28.45325 1.56537,0.50799 3.71662,1.0842 4.78056,1.28047 l 1.93445,0.35686 3.99473,-3.9876 3.99473,-3.98761 9.95103,9.954 9.95104,9.95399 -1.27883,1.25508 -1.27883,1.25508 3.03751,3.06191 c 3.41599,3.44344 4.05205,3.86946 5.77516,3.86796 1.72019,-0.001 2.72609,-0.73445 4.50547,-3.28293 11.54356,-16.53304 14.58214,-37.2898 8.26888,-56.48531 -3.12274,-9.49471 -8.25923,-17.78571 -15.512,-25.03848 C 149.1422,96.06569 144.1387,92.499852 137.15457,89.098582 115.44925,78.5281 88.910577,81.496518 69.972467,96.613071 c -13.55814,10.822219 -22.16775,26.661949 -23.84159,43.863089 -1.98498,20.39862 6.23032,40.84429 21.78791,54.22427 19.83772,17.06102 47.224753,20.44292 70.547333,8.71156 l 3.02967,-1.52394 0.39101,0.63149 c 0.31367,0.5066 3.34176,5.7253 3.74996,6.46279 0.15411,0.27843 -5.64533,3.17728 -9.27407,4.63565 -10.22677,4.11007 -22.54955,5.91074 -33.38181,4.87792 z"
       id="path21"
       inkscape:connector-curvature="0" />
  </g>
</svg>
